<svg version="1.1"
	 xmlns="http://www.w3.org/2000/svg" xmlns:xlink="http://www.w3.org/1999/xlink"
	 x="0px" y="0px" viewBox="0 0 99.4 134" style="enable-background:new 0 0 99.4 134;"
	 xml:space="preserve">
<style type="text/css">
	.st0{fill:#048E7A;}
	.st1{fill:#E0850B;}
</style>
<defs>
</defs>
<path d="M29.4,92.7L29.4,92.7c0-11,8.6-20,19.2-20h2.9c10.6,0,19.2,9,19.2,20v0c0,11-8.6,20-19.2,20h-2.9
	C38,112.7,29.4,103.7,29.4,92.7z"/>
<polygon class="st0" points="0,10 0,30 9.9,30 9.9,16.5 50.1,57 57.2,50.1 57.1,50.1 57.2,50 17.5,10 29.8,10 29.8,0 9.9,0 0,0 "/>
<polygon class="st1" points="82.4,10 57.3,35.2 64.4,42.3 89.4,17.1 89.4,30 99.4,30 99.4,10 99.4,0 89.4,0 69.5,0 69.5,10 "/>
<path d="M88.3,134c-7.5-11.9-20.5-19.7-35.1-19.7h-6.3c-14.7,0-27.6,7.8-35.1,19.7H88.3z"/>
</svg>
