<svg version="1.1"
	 xmlns="http://www.w3.org/2000/svg" xmlns:xlink="http://www.w3.org/1999/xlink" xmlns:a="http://ns.adobe.com/AdobeSVGViewerExtensions/3.0/"
	 x="0px" y="0px" viewBox="0 0 511 511" style="enable-background:new 0 0 511 511;"
	 xml:space="preserve">
<style type="text/css">
	.st0{fill:#007A7F;}
	.st1{fill:#6AA89D;}
	.st2{fill:#FFFFFF;}
</style>
<defs>
</defs>
<path class="st0" d="M501,115.7l-79.8,79.8v-39.9c-72.5,0-173.1,0-245.5,0V75.8h245.5V35.9L501,115.7z"/>
<path class="st1" d="M335.3,235.5v79.8c-59.7,0-185.9,0-245.5,0v39.9L10,275.4l79.8-79.8v39.9H335.3z"/>
<g>
	<path d="M235.5,155.7h39.9v79.8h-39.9V155.7z"/>
	<path d="M275.5,18.2v57.6h-39.9V18.2C246.6,7.2,264.4,7.2,275.5,18.2z"/>
</g>
<path class="st2" d="M421.2,105.8c-5.5,0-10,4.5-10,10c0,5.5,4.5,10,10,10s10-4.5,10-10C431.2,110.2,426.7,105.8,421.2,105.8z"/>
<path class="st2" d="M89.8,265.5c-5.5,0-10,4.5-10,10s4.5,10,10,10c5.5,0,10-4.5,10-10S95.3,265.5,89.8,265.5z"/>
<path class="st2" d="M195.6,265.5h-65.9c-5.5,0-10,4.5-10,10s4.5,10,10,10h65.9c5.5,0,10-4.5,10-10S201.1,265.5,195.6,265.5z"/>
<path d="M428.2,28.8c-2.9-2.9-7.1-3.7-10.9-2.2c-3.7,1.5-6.2,5.2-6.2,9.2v29.9H285.4V18.2c0-2.6-1.1-5.2-2.9-7.1
	c-14.9-14.9-39.1-14.9-54,0c-1.9,1.9-2.9,4.4-2.9,7.1v47.6h-49.9c-5.5,0-10,4.5-10,10v79.8c0,5.5,4.5,10,10,10h49.9v59.9H99.8v-29.9
	c0-4-2.4-7.7-6.2-9.2c-3.7-1.5-8-0.7-10.9,2.2L2.9,268.4c-3.9,3.9-3.9,10.2,0,14.1l79.8,79.8c2.9,2.9,7.2,3.7,10.9,2.2
	c3.7-1.5,6.2-5.2,6.2-9.2v-29.9h125.8v125.8h-29.9c-16.5,0-29.9,13.4-29.9,29.9v10h-29.9c-5.5,0-10,4.5-10,10c0,5.5,4.5,10,10,10
	h239.5c5.5,0,10-4.5,10-10c0-5.5-4.5-10-10-10h-29.9v-10c0-16.5-13.4-29.9-29.9-29.9h-29.9V325.3h49.9c5.5,0,10-4.5,10-10v-79.8
	c0-5.5-4.5-10-10-10h-49.9v-59.9h125.8v29.9c0,4,2.4,7.7,6.2,9.2c3.7,1.5,8,0.7,10.9-2.2l79.8-79.8c3.9-3.9,3.9-10.2,0-14.1
	L428.2,28.8z M325.4,305.4H89.8c-5.5,0-10,4.5-10,10v15.8l-55.8-55.7l55.8-55.7v15.8c0,5.5,4.5,10,10,10h235.5V305.4z M431.2,171.5
	v-15.8c0-5.5-4.5-10-10-10H185.6V85.8h235.5c5.5,0,10-4.5,10-10V60l55.8,55.7L431.2,171.5z"/>
<path class="st2" d="M381.3,105.8h-65.9c-5.5,0-10,4.5-10,10c0,5.5,4.5,10,10,10h65.9c5.5,0,10-4.5,10-10
	C391.2,110.2,386.8,105.8,381.3,105.8z"/>
</svg>
