<svg height='300px' width='300px'  fill="#2ba6cb" xmlns="http://www.w3.org/2000/svg" xmlns:xlink="http://www.w3.org/1999/xlink" version="1.1" x="0px" y="0px" viewBox="0 0 100 100" enable-background="new 0 0 100 100" xml:space="preserve"><path d="M50,95c24.813,0,45-20.188,45-45S74.813,5,50,5C25.187,5,5,25.187,5,50C5,74.813,25.187,95,50,95z M50,8.183  c23.057,0,41.816,18.76,41.816,41.817c0,23.057-18.76,41.816-41.816,41.816C26.943,91.816,8.183,73.057,8.183,50  C8.183,26.943,26.943,8.183,50,8.183z"></path><path d="M42.604,69.454c0.311,0.311,0.719,0.466,1.126,0.466c0.407,0,0.815-0.155,1.125-0.466l17.646-17.646  c0.996-0.997,0.996-2.618,0-3.615L44.855,30.546c-0.622-0.622-1.629-0.622-2.251,0c-0.622,0.621-0.622,1.629,0,2.25L59.808,50  L42.604,67.202C41.982,67.825,41.982,68.831,42.604,69.454z"></path></svg>